<?xml version="1.0" encoding="UTF-8" standalone="no"?>
<svg
   height="16"
   viewBox="0 0 16 16"
   width="16"
   version="1.1"
   id="svg8958"
   sodipodi:docname="icon_svgsprite.svg"
   inkscape:version="1.2.1 (9c6d41e410, 2022-07-14)"
   xmlns:inkscape="http://www.inkscape.org/namespaces/inkscape"
   xmlns:sodipodi="http://sodipodi.sourceforge.net/DTD/sodipodi-0.dtd"
   xmlns="http://www.w3.org/2000/svg"
   xmlns:svg="http://www.w3.org/2000/svg">
  <defs
     id="defs8962" />
  <sodipodi:namedview
     id="namedview8960"
     pagecolor="#ffffff"
     bordercolor="#000000"
     borderopacity="0.25"
     inkscape:showpageshadow="2"
     inkscape:pageopacity="0.0"
     inkscape:pagecheckerboard="0"
     inkscape:deskcolor="#d1d1d1"
     showgrid="true"
     inkscape:zoom="25.90625"
     inkscape:cx="4.4197829"
     inkscape:cy="5.7129071"
     inkscape:window-width="1920"
     inkscape:window-height="1009"
     inkscape:window-x="-8"
     inkscape:window-y="-8"
     inkscape:window-maximized="1"
     inkscape:current-layer="svg8958"
     showguides="false">
    <inkscape:grid
       type="xygrid"
       id="grid9081" />
  </sodipodi:namedview>
  <path
     id="path8956"
     d="M 5,1 C 2.7840022,1 1,2.7840022 1,5 v 6 c 0,2.215998 1.7840022,4 4,4 h 6 c 2.215998,0 4,-1.784002 4,-4 V 5 C 15,2.7840022 13.215998,1 11,1 Z M 3.953125,5 c 0.2135413,0 0.432509,0.015842 0.6582031,0.048828 0.2256941,0.03125 0.4598528,0.080295 0.7011719,0.1445313 V 6.015625 C 5.0989587,5.920139 4.8906247,5.8474392 4.6875,5.7988281 4.4843753,5.7502171 4.2918834,5.7265625 4.1113281,5.7265625 c -0.2395829,0 -0.4166668,0.033637 -0.53125,0.099609 -0.1145831,0.065972 -0.171875,0.1677519 -0.171875,0.3066406 0,0.1041665 0.038846,0.1851129 0.1152344,0.2441406 0.078125,0.057292 0.2187503,0.1067709 0.421875,0.1484375 l 0.4277344,0.085937 c 0.432291,0.086805 0.7395836,0.2194013 0.921875,0.3964844 0.1822914,0.1770831 0.2734375,0.429471 0.2734375,0.7558594 0,0.4288187 -0.1276046,0.7469621 -0.3828125,0.9570312 -0.2534718,0.208333 -0.6414939,0.3125 -1.1640625,0.3125 -0.2465274,0 -0.493924,-0.023437 -0.7421875,-0.070312 C 3.0310334,8.9160157 2.7814666,8.8478731 2.5332031,8.7558594 V 7.9082031 c 0.2482635,0.1319443 0.4878476,0.233073 0.71875,0.3007813 0.2326385,0.065972 0.4565976,0.097656 0.671875,0.097656 0.2187497,0 0.387587,-0.036458 0.5039063,-0.109375 0.1163192,-0.072916 0.1738281,-0.1770835 0.1738281,-0.3125 0,-0.1215276 -0.03928,-0.2152779 -0.1191406,-0.28125 C 4.404297,7.5375435 4.2458764,7.4798176 4.0097656,7.4277344 L 3.6230469,7.3417969 C 3.2341586,7.2584637 2.9481334,7.1256508 2.7675781,6.9433594 2.588759,6.761068 2.5,6.5141054 2.5,6.2050781 2.5,5.817926 2.6250004,5.520833 2.875,5.3125 3.1249996,5.104167 3.4843757,5 3.953125,5 Z m 2.008789,5 H 6.969726 L 8.000976,12.869141 9.030273,10 h 1.007813 L 8.59668,13.888672 H 7.401367 Z m 6.200195,-5.017578 c 0.258681,0 0.506077,0.023655 0.742188,0.072266 0.237847,0.048611 0.461806,0.121311 0.671875,0.216796 V 6.076172 C 13.359158,5.952908 13.143012,5.861545 12.927734,5.800781 12.714193,5.740018 12.498481,5.708984 12.283203,5.708984 c -0.399305,0 -0.706814,0.11198 -0.923828,0.335938 C 11.144098,6.267144 11.037109,6.58507 11.037109,7 c 0,0.411458 0.104167,0.729167 0.3125,0.953125 0.208333,0.223958 0.503039,0.335938 0.886719,0.335938 0.104167,0 0.200521,-0.00543 0.289063,-0.017579 0.09028,-0.013888 0.171007,-0.034722 0.242187,-0.0625 V 7.453125 H 12.15625 V 6.78125 h 1.5625 v 1.871094 c -0.25,0.121527 -0.5102,0.212674 -0.779297,0.273437 -0.269097,0.060764 -0.545573,0.089844 -0.832031,0.089844 -0.647568,0 -1.160591,-0.179905 -1.539063,-0.541015 C 10.189888,8.111763 10,7.619791 10,7 10,6.373265 10.192709,5.880859 10.578125,5.521484 10.963541,5.16211 11.491972,4.982422 12.162109,4.982422 Z"
     style="fill:#a5b7f3;fill-opacity:1"
     sodipodi:nodetypes="sssssssssscccsssscccsscsscccsssccccsssccccccccsccccscssscccccccsscsss" />
</svg>
